<svg width="1024" height="1024" viewBox="0 0 1024 1024" fill="none" xmlns="http://www.w3.org/2000/svg">
<path d="M355.589 761.89L424.63 780.831L513.833 757.002L596.926 777.776L622.587 695.905L658.024 701.403L656.191 774.721L641.527 801.604L598.759 808.936L524.22 857.814C524.22 857.814 508.074 862.224 497.336 862.702C486.599 863.179 469.232 860.258 469.232 860.258L409.356 823.599C409.356 823.599 398.216 825.663 391.026 825.432C383.773 825.199 372.697 822.377 372.697 822.377L325.041 783.885L355.589 761.89Z" fill="#FDFDFD"/>
<path fill-rule="evenodd" clip-rule="evenodd" d="M552.827 300.214L550.263 300.219C523.239 300.264 496.499 300.696 469.671 304.106L466.635 304.496C432.572 308.823 399.254 315.019 366.072 323.869L361.699 325.04C328.925 333.608 295.798 344.887 265.537 360.224C262.983 361.541 260.431 362.847 257.839 364.089C211.261 385.943 163.522 417.853 141.294 465.9C134.528 481.147 132.135 500.653 138.12 516.668L139.303 519.332C142.703 527.341 147.007 534.574 152.258 541.513C194.195 591.304 268.985 605.132 330.453 611.743L334.816 612.2C352.467 614.13 370.011 614.837 387.756 614.871L390.874 614.873C414.276 614.905 437.543 613.727 460.852 611.661L464.191 611.36C496.067 608.498 527.948 604.379 559.069 596.735C562.726 595.827 566.386 594.952 570.059 594.114L571.216 593.855C588.432 589.991 605.594 586.14 622.294 580.367L625.642 579.208C681.232 560.354 739.008 536.895 781.365 494.893C799.724 476.176 816.726 453.661 816.709 426.32L816.649 422.492C816.65 422.154 816.652 421.818 816.653 421.482C816.676 415.523 816.698 409.829 815.217 404L813.824 400.802C807.99 387.145 799.95 374.415 788.32 364.993L785.719 362.921C752.691 333.796 709.561 320.869 667.418 311.249L663.523 310.377C655.913 308.664 648.304 307.212 640.588 306.063L636.64 305.489C608.733 301.255 581.017 300.167 552.827 300.214ZM755.17 380.029C757.159 381.645 758.069 382.384 758.875 383.223C759.555 383.929 760.162 384.706 761.279 386.138L762.501 387.36C763.151 393.706 763.544 399.064 760.21 404.62C755.905 408.419 752.618 408.685 747.017 408.649C742.847 407.893 740.926 405.856 738.177 402.764C735.099 398.246 735.081 393.867 735.618 388.582C740.428 380.524 746.176 378.584 755.17 380.029Z" fill="#202425"/>
<path fill-rule="evenodd" clip-rule="evenodd" d="M775.332 559.045L704.458 602.425C696.287 616.044 766.904 543.118 754.864 553.547L782.053 515.666C725.303 564.646 646.998 594.612 574.282 609.728C570.994 610.401 567.71 611.086 564.43 611.794C542.251 616.6 520.019 620.994 497.528 624.062L494.893 624.42C464.07 628.696 433.348 629.767 402.269 629.833C399.309 629.837 396.349 629.842 393.389 629.854C327.094 630.124 255.275 623.951 195.559 592.74L193.069 591.427C181.393 585.395 170.453 579.376 160.501 570.716C156.466 567.192 152.18 564.037 147.857 560.878C157.228 593.677 191.069 625.288 215.676 648.384H213.843C216.887 651.236 218.045 651.6 221.174 654.358H217.508C244.304 677.603 279.215 699.727 314.043 707.513L318.931 712.401V722.177C311.719 725.236 305.133 726.506 297.294 726.258C275.622 724.021 252.457 712.527 238.205 695.905C237.055 694.442 235.87 693.003 234.616 691.628H232.172C232.024 698.555 231.954 705.474 232.172 712.401C234.068 739.169 250.948 761.106 270.511 778.134L273.719 780.831C300.867 803.882 337.749 817.431 372.697 822.377C372.287 821.971 371.876 821.565 371.464 821.158C365.976 815.736 360.417 810.244 356.272 803.718C352.209 795.398 350.921 786.425 352.994 777.392C353.669 775.478 354.013 774.505 354.278 773.511C354.552 772.483 354.743 771.433 355.131 769.298L355.59 766.167H358.034C358.034 772.479 359.887 776.586 362.921 782.053C370.072 792.594 378.35 795.82 390.416 798.625C392.385 798.982 393.302 799.149 394.194 799.393C394.967 799.605 395.724 799.876 397.136 800.382C401.068 812.177 408.623 825.342 417.895 833.781L420.353 835.819C434.712 847.884 450.63 856.876 469.232 860.258C465.062 854.814 461.459 849.205 458.234 843.151C451.449 829.063 450.849 811.519 455.79 796.716C458.616 801.03 461.517 805.075 465.399 808.501C470.727 812.206 474.95 813.299 481.418 812.878L483.895 812.602C488.582 812.155 492.362 810.589 496.401 808.139C508.04 799.255 511.099 784.245 513.814 770.702L514.444 767.389C522.965 777.215 529.569 788.32 534.205 800.468C538.148 814.117 538.294 829.082 532.239 842.015L530.33 845.747L528.42 849.499C527.004 852.263 525.603 855.034 524.22 857.814C545.316 857.814 573.109 841.379 588.759 827.986C604.983 812.356 613.594 797.119 614.263 774.645L614.308 770.896L614.353 767.346L614.352 764.162C614.789 759.858 616.14 757.272 619.294 754.344C623.967 750.649 628.317 747.127 630.979 741.709C634.164 731.719 631.214 723.148 627.137 713.993C625.078 709.378 623.806 705.202 623.198 700.181C625.435 704.045 627.722 707.145 630.874 710.334C638.321 717.523 644.992 724.132 648.893 733.862C655.484 755.733 651.235 777.46 640.826 797.155L639.084 800.382L641.528 801.604C671.723 795.517 701.95 781.967 726.65 763.611L728.821 761.967C731.189 760.177 733.398 758.372 735.618 756.392V753.948C739.685 752.592 741.317 750.773 744.077 747.59L745.852 745.47C752.864 737.12 759.171 728.517 760.057 717.289L757.824 718.315L754.864 719.656C751.31 721.277 747.967 722.499 744.172 723.399L744.672 722.407C750.465 710.927 756.129 699.701 757.614 686.74C758.714 667.552 755.878 652.138 743.036 637.05L740.506 634.196C738.176 631.496 735.844 628.799 733.48 626.129L731.952 624.42L735.007 620.754C761.716 597.509 772.502 568.908 786.467 536.439L785.719 533.995C793.768 515.297 774.337 579.613 775.332 559.045ZM729.509 628.086C730.445 645.879 725.854 662.956 715.217 677.318C708.247 684.937 698.606 688.787 688.42 689.489C677.574 689.288 668.15 685.05 659.857 678.186L657.413 674.52L659.474 673.446C682.825 661.189 704.752 647.566 725.06 630.692C727.485 628.733 728.84 623.319 729.509 623.198C729.729 623.158 729.205 628.086 729.509 628.086ZM582.874 747.838V702.625C582.68 702.625 582.515 702.625 582.35 702.632C581.396 702.667 580.446 702.909 574.019 704.547L570.645 705.303L566.993 706.127L563.17 706.979C559.55 707.793 555.93 708.607 552.31 709.416L549.881 709.957C551.504 711.592 553.135 713.22 554.769 714.845C563.041 722.799 570.664 730.563 577.227 740.048C579.035 742.697 580.949 745.272 582.874 747.838ZM389.804 724.621L427.685 725.843L424.019 738.062C423.343 740.955 422.701 743.857 422.11 746.769C420.844 752.871 419.478 758.914 417.909 764.945C415.853 761.86 414.053 758.74 412.271 755.494C407.545 746.948 402.288 739.382 395.914 731.952L389.804 724.621Z" fill="#F8420C"/>
<path d="M815.046 476.563C815.449 476.563 815.852 476.563 816.267 476.563C815.272 497.131 807.209 516.519 799.16 535.217C798.777 536.117 798.395 537.016 798.001 537.943C785.611 566.749 766.87 590.838 745.394 613.422C743.856 615.079 743.856 615.079 742.287 616.768C741.321 617.781 740.355 618.794 739.361 619.838C738.518 620.726 737.675 621.615 736.807 622.53C734.396 624.42 734.396 624.42 729.509 624.42C729.382 625.155 729.256 625.889 729.127 626.646C728.143 629.764 727.131 630.743 724.621 632.788C723.85 633.42 723.079 634.051 722.285 634.703C721.443 635.367 720.6 636.031 719.733 636.716C718.858 637.414 717.982 638.113 717.081 638.832C701.177 651.311 683.79 661.39 665.967 670.854C663.916 671.946 663.916 671.946 661.824 673.06C658.635 674.52 658.635 674.52 656.115 674.062C648.11 667.348 644.906 658.43 643.58 648.32C642.967 635.587 648.425 624.043 654.969 613.422C625.52 624.459 605.479 642.75 592.406 671.111C589.818 676.895 588.037 682.296 587.17 688.587C585.396 700.245 585.396 700.245 581.79 703.456C578.488 704.864 575.402 705.606 571.876 706.291C570.337 706.66 568.798 707.028 567.213 707.408C553.119 710.636 553.119 710.636 547.437 708.735C543.849 706.264 540.807 703.188 537.661 700.181C536.807 699.391 535.954 698.6 535.074 697.785C524.741 687.92 518.276 677.017 517.575 662.453C517.81 654.656 519.806 644.719 525.442 639.084C516.216 641.317 507.788 644.27 499.246 648.401C498.13 648.938 497.015 649.475 495.865 650.028C486.922 654.452 479.257 659.438 471.676 665.967C470.631 666.83 469.587 667.693 468.511 668.582C450.074 684.377 438.72 704.623 427.685 725.842C422.797 725.878 417.91 725.9 413.022 725.919C411.646 725.929 410.271 725.939 408.855 725.95C404.946 725.961 401.044 725.92 397.136 725.842C396.202 725.836 395.268 725.829 394.306 725.823C388.118 725.473 384.902 723.107 380.307 719.347C375.112 715.419 369.182 712.721 363.38 709.804C338.702 697.308 338.702 697.308 333.136 685.671C331.569 677.833 331.751 670.995 334.816 663.523C334.413 663.926 334.01 664.329 333.594 664.745C332.758 665.432 332.758 665.432 331.905 666.134C324.121 673.062 317.803 683.198 315.909 693.57C315.876 696.264 316.093 698.74 316.487 701.403C316.588 702.43 316.689 703.457 316.793 704.516C317.054 707.149 317.376 709.776 317.709 712.401C281.474 703.347 246.938 685.549 218.73 661.079C217.746 660.23 216.761 659.381 215.747 658.506C212.618 655.748 209.555 652.933 206.511 650.081C205.909 649.521 205.308 648.961 204.688 648.384C180.081 625.288 157.228 593.676 147.857 560.878C152.18 564.037 156.466 567.191 160.501 570.716C170.453 579.376 181.393 585.395 193.069 591.427C194.302 592.077 194.302 592.077 195.559 592.74C255.275 623.951 327.094 630.124 393.389 629.854C396.349 629.842 399.309 629.837 402.269 629.832C433.348 629.767 464.07 628.696 494.893 624.42C495.762 624.302 496.632 624.184 497.528 624.062C520.019 620.994 542.251 616.6 564.43 611.794C567.71 611.086 570.994 610.401 574.282 609.728C646.998 594.612 725.303 564.645 782.053 515.666C783.152 514.744 784.252 513.823 785.384 512.873C797.424 502.445 806.874 490.182 815.046 476.563Z" fill="#1F2527"/>
<path d="M424.019 455.79C424.896 456.155 425.773 456.521 426.676 456.897C446.953 465.506 465.428 477.595 482.673 491.227C483.721 492.04 484.768 492.852 485.848 493.69C492.154 498.642 498.177 503.843 504.096 509.251C505.988 510.975 507.895 512.684 509.824 514.368C547.126 547.071 547.126 547.071 555.991 564.544C554.769 568.21 554.769 568.21 552.344 569.466C539.96 573.541 527.284 575.843 514.444 577.986C513.568 578.134 512.691 578.283 511.788 578.436C497.606 580.758 483.56 580.701 469.232 580.43C468.89 579.604 468.548 578.779 468.196 577.929C464.494 569.411 464.494 569.411 457.273 564.104C446.429 560.97 435.773 564.119 425.47 567.599C394.22 577.321 363.342 567.472 334.779 553.099C315.58 543.007 297.938 530.892 290.826 509.556C289.797 492.804 290.75 480.222 301.881 466.893C334.288 432.282 384.565 439.258 424.019 455.79Z" fill="#FC8916"/>
<path fill-rule="evenodd" clip-rule="evenodd" d="M999.561 160.077C997.332 157.631 995.115 155.482 992.535 153.408C976.373 142.325 965.586 134.928 954.213 133.876C931.386 131.765 906.196 155.212 830.449 225.717C827.583 228.389 824.711 231.049 821.799 233.671C818.922 236.236 816.948 237.996 814.988 239.773C810.701 243.661 806.487 247.628 793.05 260.277L787.79 265.232L782.663 270.053C777.992 274.463 773.291 278.818 768.449 283.041C765.687 285.44 762.96 287.857 760.258 290.325C754.767 295.402 749.232 300.28 743.332 304.878C741.591 306.2 740.837 306.772 740.11 307.375C739.554 307.834 739.014 308.313 738.062 309.155V311.599C756.448 317.303 774.177 328.109 789.537 339.552C790.016 339.915 790.493 340.28 790.969 340.645C794.729 343.524 798.427 346.354 802.826 348.258C807.111 341.83 812.887 336.792 818.711 331.762C821.132 329.676 823.496 327.585 825.776 325.346C829.331 321.726 832.901 318.211 836.735 314.883C839.548 312.46 842.325 310.015 845.064 307.509C851.634 301.462 858.297 295.607 865.251 290.005L868.811 287.16C896.697 264.543 926.805 244.973 958.014 227.284C961.843 225.128 965.669 222.969 969.486 220.792L973.365 218.578C978.133 215.922 982.815 213.23 987.341 210.177C996.979 202.446 1004.53 195.411 1006.24 182.726C1006.58 174.942 1006.36 168.521 1001.52 162.201L999.561 160.077ZM956.792 168.325L960.687 168.229C962.581 168.45 963.431 168.549 964.194 168.861C964.817 169.116 965.381 169.511 966.406 170.229C966.943 171.032 967.272 171.523 967.482 172.06C967.813 172.906 967.849 173.868 967.943 176.343C966.081 182.446 963.377 184.882 958.014 188.182C949.643 192.236 941.644 195.649 932.277 195.819L929.103 195.914C927.638 195.709 926.924 195.609 926.28 195.339C925.667 195.083 925.119 194.672 924.048 193.871C923.414 192.998 923.053 192.502 922.83 191.95C922.535 191.222 922.479 190.398 922.348 188.487C925.682 179.363 934.742 174.973 943.107 171.007C947.862 168.964 951.641 168.401 956.792 168.325Z" fill="#202528"/>
<path d="M618.31 672.076C618.714 672.076 619.117 672.076 619.532 672.076C619.638 672.774 619.743 673.472 619.852 674.191C623.743 696.643 633.696 708.701 651.607 721.78C661.553 729.093 669.225 736.634 672.077 749.06C672.436 754.386 672.377 759.618 672.077 764.945C679.188 756.542 682.002 747.191 684.172 736.52C687.37 728.571 692.814 724.07 700.52 720.692C701.417 720.325 702.313 719.958 703.236 719.58C711.627 716.056 719.868 712.588 723.704 703.695C725.08 700.594 726.376 698.16 728.287 695.294C729.816 723.552 716.252 751.574 697.738 772.277C696.73 773.446 695.721 774.614 694.683 775.819C689.16 782.137 689.16 782.137 686.74 784.496C685.934 784.496 685.127 784.496 684.296 784.496C683.893 785.706 683.49 786.916 683.074 788.162C673.412 793.258 662.655 796.273 652.143 799.084C651.129 799.357 650.115 799.63 649.07 799.911C641.838 801.759 641.838 801.759 639.084 800.382C639.659 799.317 640.234 798.252 640.826 797.155C651.235 777.46 655.484 755.732 648.893 733.862C644.992 724.132 638.321 717.523 630.874 710.334C627.722 707.145 625.435 704.045 623.198 700.181C623.806 705.201 625.078 709.378 627.137 713.993C631.214 723.148 634.165 731.719 630.979 741.709C628.317 747.127 623.967 750.649 619.294 754.344C616.14 757.272 614.789 759.858 614.352 764.162C614.352 765.213 614.353 766.264 614.353 767.346C614.338 768.518 614.323 769.689 614.308 770.896C614.293 772.133 614.278 773.37 614.263 774.644C613.594 797.119 604.983 812.356 588.759 827.986C573.109 841.379 545.316 857.814 524.22 857.814C525.603 855.033 527.004 852.263 528.42 849.499C529.05 848.261 529.68 847.023 530.33 845.747C530.96 844.515 531.59 843.283 532.239 842.014C538.294 829.081 538.148 814.117 534.205 800.468C529.569 788.32 522.965 777.215 514.444 767.389C514.236 768.482 514.028 769.575 513.814 770.702C511.1 784.245 508.04 799.255 496.401 808.138C492.362 810.589 488.582 812.155 483.895 812.601C482.669 812.739 482.669 812.739 481.418 812.878C474.95 813.298 470.727 812.206 465.399 808.501C461.517 805.075 458.616 801.03 455.79 796.716C450.849 811.519 451.449 829.063 458.234 843.15C461.459 849.205 465.062 854.814 469.232 860.258C450.63 856.876 434.712 847.884 420.353 835.819C419.542 835.146 418.731 834.473 417.895 833.78C408.623 825.342 401.068 812.177 397.136 800.382C394.093 799.292 394.093 799.292 390.415 798.625C378.349 795.82 370.072 792.593 362.921 782.053C359.887 776.586 358.034 772.479 358.034 766.167C357.227 766.167 356.421 766.167 355.59 766.167C355.363 767.717 355.363 767.717 355.131 769.298C354.368 773.499 354.368 773.499 352.993 777.394C350.92 786.427 352.209 795.398 356.272 803.718C360.728 810.734 366.818 816.554 372.697 822.377C334.114 816.917 334.114 816.917 325.041 807.714C322.641 806.056 320.22 804.431 317.785 802.826C297.271 788.829 280.9 770.289 272.497 746.616C272.9 745.809 273.303 745.003 273.719 744.172C274.437 744.928 274.437 744.928 275.17 745.699C290.11 760.124 310.111 766.343 330.463 766.473C331.45 766.498 332.437 766.523 333.454 766.549C340.438 766.594 345.57 765.458 351.924 762.501C354.787 759.384 354.787 759.384 356.812 756.391C357.618 756.391 358.425 756.391 359.256 756.391C359.7 757.476 359.7 757.476 360.153 758.582C364.558 768.968 368.31 773.664 378.797 778.167C382.311 779.545 385.847 780.771 389.423 781.976C395.843 784.26 400.591 787.351 405.69 791.828C406.758 792.705 406.758 792.705 407.847 793.599C413.442 798.602 416.879 804.602 420.442 811.115C423.619 816.913 427.164 822.158 431.351 827.265C431.156 826.433 430.96 825.602 430.759 824.745C427.61 806.807 430.96 788.61 441.127 773.499C446.866 765.834 453.388 759.672 461.9 755.169C462.706 755.169 463.513 755.169 464.344 755.169C463.944 756.031 463.544 756.893 463.131 757.78C461.797 761.571 461.651 764.383 461.747 768.382C461.769 769.574 461.791 770.767 461.814 771.995C461.842 772.895 461.871 773.794 461.9 774.721C465.411 775.744 467.271 776.282 470.659 774.726C471.473 774.144 472.288 773.563 473.127 772.964C477.589 769.833 477.589 769.833 480.229 769.833C480.579 769.123 480.929 768.412 481.289 767.68C482.14 765.998 483.03 764.334 483.981 762.706C489.202 752.903 489.028 742.014 486.583 731.351C484.744 725.545 482.884 720.81 479.007 716.067C510.924 731.206 530.737 758.025 542.549 790.606C547.375 785.995 549.971 781.32 550.454 774.597C550.494 772.755 550.506 770.912 550.492 769.069C550.492 768.105 550.492 767.141 550.492 766.148C550.304 758.5 548.497 752.469 544.988 745.623C544.587 744.741 544.185 743.859 543.771 742.95C544.174 742.143 544.578 741.337 544.993 740.506C558.902 752.038 570.694 764.989 574.32 783.275C574.772 788.481 574.78 793.632 574.702 798.854C574.706 800.195 574.71 801.535 574.714 802.917C574.67 809.44 574.543 815.077 571.876 821.155C583.588 807.282 587.688 795.889 591.427 778.387C594.709 781.668 595.167 784.956 596.315 789.384C599.672 780.144 599.157 770.737 599.129 761.01C599.296 751.743 600.711 744.542 606.091 736.84C608.187 734.845 610.348 733.097 612.63 731.322C617.613 726.836 619.344 721.431 620.067 714.921C619.891 711.265 619.028 708.388 617.699 704.993C613.821 694.425 614.914 682.605 618.31 672.076Z" fill="#FD950B"/>
<path d="M637.733 425.251C645.975 432.178 650.635 438.336 651.752 449.131C652.201 462.287 650.064 471.349 641.68 481.528C617.531 506.58 580.477 512.507 547.437 515.666C546.465 515.768 545.493 515.87 544.492 515.976C531.542 517.231 531.542 517.231 526.301 513.862C523.914 511.465 523.914 511.465 521.68 508.735C519.109 505.62 516.376 503.293 513.222 500.773C512.089 499.864 510.957 498.956 509.79 498.019C509.174 497.528 508.558 497.036 507.924 496.529C505.639 494.691 503.375 492.829 501.112 490.964C492.345 483.754 483.598 476.719 474.119 470.454C484.104 447.861 518.47 431.581 540.181 422.95C550.502 419.012 561.053 416.385 571.876 414.244C573.067 414.007 574.257 413.771 575.484 413.528C596.053 410.732 620.371 413.208 637.733 425.251Z" fill="#FB8D19"/>
<path d="M292.048 483.895C292.451 483.895 292.854 483.895 293.27 483.895C293.537 484.928 293.805 485.962 294.081 487.026C296.568 495.923 299.094 502.828 305.489 509.556C306.593 510.733 306.593 510.733 307.718 511.933C322.512 526.304 342.552 533.552 361.699 540.105C362.995 540.549 362.995 540.549 364.316 541.001C402.154 553.639 441.427 557.455 481.069 557.594C482.59 557.602 482.59 557.602 484.141 557.609C503.267 557.651 521.761 555.83 540.634 552.773C543.771 552.325 543.771 552.325 547.437 552.325C549.356 554.291 549.356 554.291 551.255 556.907C551.889 557.758 552.522 558.608 553.174 559.485C554.728 562.034 555.452 564.071 555.99 566.988C529.182 578.862 498.248 581.56 469.231 580.43C468.89 579.604 468.548 578.779 468.196 577.928C464.494 569.411 464.494 569.411 457.273 564.104C446.429 560.97 435.773 564.119 425.47 567.599C394.22 577.321 363.342 567.472 334.778 553.099C315.579 543.007 297.938 530.892 290.826 509.556C290.714 507.879 290.666 506.197 290.663 504.516C290.662 503.552 290.66 502.588 290.659 501.594C290.663 500.592 290.668 499.591 290.673 498.559C290.668 497.557 290.664 496.555 290.659 495.523C290.66 494.559 290.662 493.595 290.663 492.601C290.665 491.723 290.666 490.844 290.668 489.938C290.826 487.561 290.826 487.561 292.048 483.895Z" fill="#F65209"/>
<path d="M587.991 357.041C591.78 359.482 594.007 361.487 596.315 365.365C595.942 370.49 594.378 372.905 590.664 376.363C570.999 393.222 544.719 403.972 521.052 414.027C505.374 420.695 494.295 428.99 482.902 441.508C482.289 442.18 481.675 442.852 481.043 443.544C479.549 445.181 478.056 446.819 476.563 448.458C471.963 446.318 469.45 444.342 466.788 439.905C466.33 435.933 466.33 435.933 468.01 431.351C480.493 416.774 499.29 409.56 516.373 401.895C528.378 396.434 540.374 390.654 550.568 382.167C551.528 381.379 552.487 380.592 553.475 379.78C555.632 377.898 557.646 375.953 559.657 373.919C558.472 374.776 557.287 375.633 556.067 376.516C538.452 389.068 520.183 397.533 500.161 405.652C492.678 408.73 485.835 412.112 479.052 416.536C476.563 417.909 476.563 417.909 472.898 417.909C470.013 412.32 469.475 406.952 470.454 400.802C473.818 392.337 481.112 385.056 489.227 381.045C497.979 378.284 507.121 378.902 515.284 383.007C517.056 384.025 518.816 385.063 520.554 386.138C521.36 386.542 522.167 386.945 522.998 387.36C525.863 386.043 528.518 384.649 531.246 383.084C532.088 382.607 532.931 382.13 533.799 381.639C542.969 376.325 551.656 370.296 560.326 364.21C561.42 363.446 562.515 362.682 563.642 361.895C564.612 361.21 565.582 360.525 566.581 359.819C573.654 355.389 579.985 354.058 587.991 357.041Z" fill="#F46607"/>
<path d="M590.511 412.869C591.506 412.864 592.502 412.859 593.527 412.854C600.893 412.867 600.893 412.867 603.647 414.244C603.647 415.05 603.647 415.856 603.647 416.687C602.08 416.91 602.08 416.91 600.482 417.136C598.457 417.443 598.457 417.443 596.391 417.757C595.044 417.955 593.698 418.154 592.31 418.358C591.212 418.613 590.114 418.868 588.983 419.131C588.58 419.938 588.177 420.744 587.761 421.575C586.81 421.476 585.858 421.377 584.878 421.275C558.287 419.773 530.59 435.498 510.654 452.038C508.134 454.786 507.032 457.153 505.89 460.678C512.215 463.885 518.665 466.833 525.093 469.825C526.637 470.544 528.179 471.264 529.721 471.986C538.782 476.227 547.861 480.326 557.212 483.895C557.212 484.702 557.212 485.508 557.212 486.339C572.142 486.045 572.142 486.045 586.845 483.819C594.736 481.923 602.919 482.48 610.978 482.673C609.076 486.478 606.158 486.662 602.196 488.019C589.966 492.089 577.265 494.203 564.544 496.115C563.683 496.246 562.822 496.377 561.934 496.513C553.039 497.688 544.098 497.516 535.141 497.489C533.507 497.494 531.874 497.498 530.241 497.504C525.787 497.499 521.34 497.444 516.888 497.337C515.88 497.313 514.872 497.29 513.834 497.266C507.583 496.835 503.998 494.267 499.627 490.081C498.275 488.86 496.918 487.644 495.556 486.434C494.857 485.813 494.158 485.192 493.438 484.551C489.691 481.369 485.701 478.545 481.68 475.723C480.926 475.193 480.172 474.663 479.395 474.117C477.641 472.89 475.881 471.671 474.119 470.454C484.104 447.861 518.47 431.581 540.181 422.95C550.502 419.012 561.053 416.385 571.876 414.244C573.048 414.004 574.22 413.765 575.427 413.518C580.47 412.856 585.43 412.844 590.511 412.869Z" fill="#FB8F18"/>
<path d="M675.819 497.948C682.864 501.727 688.554 508.302 691.628 515.666C692.896 522.042 691.968 526.942 688.573 532.468C682.009 541.271 672.958 545.468 662.301 547.437C651.633 548.631 643.029 547.737 634.196 541.327C628.685 536.086 625.465 531.85 625.107 524.143C625.21 516.329 627.619 511.507 632.974 505.89C645.005 496.054 660.844 492.103 675.819 497.948Z" fill="#FD9B0E"/>
<path d="M477.785 340.926C483.757 346.705 483.757 346.705 484.277 352.535C484.078 364.144 477.043 373.709 470.606 382.854C457.388 402.198 450.808 419.617 449.938 443.088C449.68 447.236 449.68 447.236 448.458 448.458C442.405 449.243 437.736 449.457 432.573 446.014C427.264 438.052 427.27 429.167 427.303 419.895C427.284 418.818 427.264 417.74 427.244 416.63C427.224 390.406 445.565 371.756 462.969 354.291C473.393 343.854 473.393 343.854 477.785 340.926Z" fill="#EA6106"/>
<path d="M162.52 619.532C164.265 622.822 165.475 625.961 166.491 629.537C170.75 642.503 179.961 651.52 190.549 659.628C200.85 667.781 208.67 677.328 211.398 690.406C212.563 701.888 210.817 712.347 207.733 723.399C206.926 723.399 206.12 723.399 205.289 723.399C203.876 721.379 203.876 721.379 202.234 718.587C196.866 710.31 189.684 704.251 181.761 698.468C168.618 688.862 159.103 678.452 155.57 662.072C154.405 647.852 154.276 631.898 162.52 619.532Z" fill="#F94410"/>
<path d="M650.081 444.792C650.484 444.792 650.887 444.792 651.303 444.792C652.004 459.392 651.248 469.911 641.68 481.528C617.531 506.58 580.477 512.507 547.437 515.666C546.465 515.768 545.493 515.87 544.492 515.976C531.508 517.235 531.508 517.235 526.215 513.776C523.761 511.313 523.761 511.313 521.594 508.63C518.366 504.721 514.448 501.988 510.396 498.983C509.375 498.168 509.375 498.168 508.334 497.337C508.334 496.933 508.334 496.53 508.334 496.115C509.569 496.134 510.804 496.153 512.077 496.173C545.828 496.829 545.828 496.829 579.207 492.449C580.072 492.272 580.937 492.096 581.828 491.914C606.428 486.762 630.579 477.905 647.102 458.158C649.349 453.568 649.73 449.877 650.081 444.792Z" fill="#F5590A"/>
<path d="M283.694 542.143C289.223 544.587 293.061 548.071 297.017 552.592C303.709 558.757 309.229 560.277 318.014 560.267C328.658 560.607 338.821 561.638 346.501 569.814C351.564 576.671 352.997 584.332 351.923 592.649C349.172 596.459 345.946 598.475 341.308 599.446C337.523 598.526 336.877 597.128 334.816 593.871C334.074 591.648 333.389 589.406 332.754 587.15C331.126 582.593 330.013 579.652 325.728 577.222C320.033 574.986 314.108 575.029 308.062 574.716C301.448 574.025 296.928 571.048 291.484 567.437C285.137 563.299 285.137 563.299 277.842 561.718C272.068 563.964 268.342 567.598 263.943 571.876C256.654 578.949 256.654 578.949 251.647 579.971C247.02 578.987 244.307 577.402 240.725 574.32C239.642 571.379 239.642 571.379 239.503 568.21C241.222 565.818 241.222 565.818 243.78 563.551C247.296 560.315 250.466 557.102 253.48 553.394C261.894 543.761 270.775 538.155 283.694 542.143Z" fill="#F5210C"/>
<path d="M400.955 386.215C407.861 390.869 412.537 396.65 414.898 404.697C415.657 409.29 415.811 413.794 415.847 418.444C415.854 419.313 415.861 420.181 415.868 421.076C415.779 427.372 415.779 427.372 413.022 430.129C410.11 430.368 410.11 430.368 406.759 430.282C405.647 430.26 404.535 430.238 403.389 430.215C402.535 430.187 401.682 430.158 400.802 430.129C400.552 428.863 400.301 427.596 400.043 426.291C399.711 424.617 399.378 422.944 399.046 421.27C398.881 420.436 398.716 419.603 398.547 418.745C398.086 416.428 397.611 414.114 397.136 411.8C396.95 410.831 396.764 409.862 396.573 408.864C396.043 406.596 396.043 406.596 393.241 405.308C387.784 403.974 383.837 404.936 378.945 407.637C377.816 408.406 376.686 409.175 375.523 409.967C370.218 413.548 366.659 415.693 360.186 415.37C358.682 415.323 358.682 415.323 357.148 415.275C355.053 415.199 352.959 415.103 350.867 414.988C345.707 414.859 342.023 414.946 337.809 418.134C334.615 421.807 333.874 423.296 333.747 428.067C333.676 429.685 333.676 429.685 333.604 431.337C333.601 432.148 333.598 432.959 333.594 433.795C331.204 434.818 328.81 435.835 326.415 436.85C325.083 437.417 323.75 437.984 322.377 438.568C318.931 439.905 318.931 439.905 316.487 439.905C313.449 433.829 314.835 425.705 316.793 419.437C319.99 411.03 324.468 405.153 332.373 400.802C336.062 399.654 339.244 399.489 343.093 399.633C344.202 399.659 345.311 399.685 346.454 399.711C348.768 399.776 351.081 399.856 353.394 399.95C360.567 400.087 364.562 399.498 370.253 394.692C371.539 393.705 371.539 393.705 372.85 392.697C373.606 392.095 374.362 391.494 375.141 390.874C383.121 384.889 391.432 382.977 400.955 386.215Z" fill="#F62D0D"/>
<path d="M737.527 453.957C743.639 457.68 748.041 463.732 750.282 470.453C750.94 478.22 749.92 483.569 745.394 490.005C740.315 495.585 734.076 499.484 727.064 502.224C726.258 502.224 725.451 502.224 724.62 502.224C722.246 507.132 721.69 511.663 721.255 517.021C720.955 519.332 720.955 519.332 719.733 520.554C714.644 520.749 710.021 520.532 705.069 519.332C706.539 500.809 706.539 500.809 712.029 495.231C714.521 493.321 717.052 491.64 719.733 490.005C720.646 489.438 721.56 488.87 722.501 488.286C724.187 487.243 725.884 486.216 727.594 485.212C729.71 483.983 729.71 483.983 730.73 481.451C731.24 477.888 731.24 477.888 730.73 474.119C727.397 470.008 725 468.21 719.733 467.551C711.486 467.671 704.203 473.019 697.585 477.48C691.421 481.359 686.297 482.053 679.241 480.735C668.885 478.259 668.885 478.259 667.188 476.563C667.54 473.704 667.945 470.852 668.41 468.009C669.606 468.094 670.802 468.179 672.033 468.267C682.967 468.719 689.132 467.672 697.737 460.678C699.905 459.293 702.095 457.944 704.305 456.63C705.298 456.03 706.29 455.43 707.313 454.811C715.437 450.309 728.985 450.184 737.527 453.957Z" fill="#F4220C"/>
<path d="M592.85 522.764C601.232 522.246 607.667 525.119 613.99 530.401C620.059 536.234 624.95 541.372 626.177 549.957C625.468 554.718 624.338 556.422 620.754 559.656C608.752 566.251 593.205 564.229 580.496 560.936C572 558.024 564.992 554.443 560.878 546.215C560.103 540.984 560.523 537.572 563.322 533.155C567.815 527.571 573.008 524.866 580.038 523.656C584.306 523.219 588.58 523.141 592.85 522.764Z" fill="#EE1A07"/>
<path d="M712.072 409.885C717.424 413.579 721.335 417.828 723.399 424.019C723.69 426.835 723.69 426.835 723.781 429.976C723.849 431.521 723.849 431.521 723.919 433.098C723.194 437.476 721.706 439.28 718.511 442.348C715.385 443.718 712.587 444.771 709.346 445.709C708.535 445.962 707.724 446.216 706.888 446.477C695.66 449.951 686.693 451.661 675.762 446.272C670.91 443.357 667.758 440.392 665.967 435.017C665.517 428.152 665.647 423.764 669.633 417.909C681.166 405.293 696.802 401.445 712.072 409.885Z" fill="#FCA715"/>
<path d="M796.716 570.654C800.382 571.876 800.382 571.876 802.301 575.566C802.948 577.105 803.58 578.65 804.201 580.2C804.523 580.97 804.846 581.739 805.179 582.532C811.142 596.954 810.788 613.897 804.897 628.324C798.767 641.671 790.198 653.389 778.387 662.301C770.847 651.745 769.245 640.813 771.055 628.086C774.138 618.778 780.612 611.868 786.874 604.52C790.508 599.717 792.483 594.69 794.272 588.983C794.675 587.773 795.079 586.564 795.494 585.317C795.767 582.801 795.992 580.28 796.181 577.756C796.284 576.429 796.386 575.101 796.492 573.733C796.603 572.209 796.603 572.209 796.716 570.654Z" fill="#F94511"/>
<path d="M455.332 576.076C457.833 580.738 457.986 585.033 457.012 590.205C450.866 597.262 438.914 598.061 430.129 598.759C410.206 599.636 390.157 598.385 370.253 597.537C369.85 592.295 369.447 587.053 369.031 581.652C370.136 581.647 371.241 581.642 372.38 581.636C392.106 581.48 411.261 581.292 430.509 576.431C447.958 572.038 447.958 572.038 455.332 576.076Z" fill="#ED6B05"/>
<path d="M251.494 504.287C252.9 504.267 254.306 504.247 255.754 504.227C263.778 504.222 270.219 504.557 277.384 508.334C279.098 510.711 279.098 510.711 279.752 513.375C280.121 514.814 280.121 514.814 280.497 516.282C281.347 520.966 281.895 525.582 282.272 530.329C281.239 530.273 280.206 530.216 279.141 530.158C265.768 529.732 259.137 532.8 248.988 541.117C246.835 542.549 246.835 542.549 243.17 542.549C244.027 532.605 246.334 526.046 254.167 519.332C259.255 516.721 263.545 516.629 269.213 516.735C270.745 516.757 272.278 516.779 273.857 516.802C275.603 516.845 275.603 516.845 277.384 516.888C277.384 516.081 277.384 515.275 277.384 514.444C262.412 514.371 262.412 514.371 249.279 520.554C244.125 525.992 240.896 531.912 238.282 538.883C234.005 538.517 232.234 537.713 228.888 534.912C224.14 529.265 222.981 524.431 223.15 517.155C223.978 512.361 226.153 510.37 229.728 507.112C236.744 503.642 243.831 504.265 251.494 504.287Z" fill="#F99A12"/>
<path d="M263.255 460.372C264.475 460.379 265.695 460.385 266.952 460.391C273.786 460.463 280.4 460.901 287.16 461.9C287.16 466.978 286.298 469.261 284.258 473.814C281.755 479.6 279.909 485.068 278.606 491.227C267.628 494.14 256.884 496.508 245.613 493.671C240.945 490.447 238.395 488.255 237.06 482.673C236.544 477.095 236.439 472.169 238.358 466.864C245.18 459.602 253.988 460.182 263.255 460.372Z" fill="#F5A517"/>
<path d="M590.511 412.869C591.506 412.864 592.502 412.859 593.527 412.854C600.893 412.867 600.893 412.867 603.647 414.244C603.647 415.05 603.647 415.856 603.647 416.687C602.08 416.91 602.08 416.91 600.482 417.136C598.457 417.443 598.457 417.443 596.391 417.757C595.044 417.955 593.698 418.154 592.31 418.358C591.212 418.613 590.114 418.868 588.983 419.131C588.58 419.938 588.177 420.744 587.761 421.575C586.81 421.476 585.858 421.377 584.878 421.275C558.734 419.799 530.174 435.097 511.002 452.086C509.681 453.315 509.681 453.315 508.334 454.568C507.542 455.236 506.749 455.904 505.933 456.592C499.023 462.761 495.279 470.816 491.227 479.007C485.599 479.007 484.333 477.98 479.923 474.73C478.833 473.936 477.743 473.143 476.62 472.325C475.795 471.707 474.97 471.09 474.119 470.454C484.104 447.861 518.47 431.581 540.181 422.95C550.502 419.012 561.053 416.385 571.876 414.244C573.048 414.004 574.22 413.765 575.427 413.518C580.47 412.856 585.43 412.844 590.511 412.869Z" fill="#FACF7E"/>
<path d="M687.962 510.778C691.152 513.835 692.023 516.497 692.315 520.783C692.05 527.795 688.937 532.564 684.296 537.661C674.766 545.847 662.582 548.271 650.306 547.938C640.784 546.711 633.994 542.125 628.158 534.668C625.594 530.913 625.409 528.279 625.337 523.761C625.305 522.593 625.274 521.424 625.241 520.22C625.698 516.425 626.783 514.804 629.308 512C629.56 513.084 629.812 514.167 630.072 515.284C632.559 521.276 636.421 524.338 642.377 526.807C647.076 528.062 651.513 528.355 656.344 528.344C657.252 528.342 658.161 528.34 659.097 528.338C668.222 528.137 677.498 526.702 684.635 520.63C687.308 517.429 687.59 514.872 687.962 510.778Z" fill="#F73B08"/>
<path d="M195.513 508.334C200.537 508.63 203.43 509.079 207.504 512.129C210.647 516.288 211.541 519.52 212.621 524.602C215.655 537.381 220.726 544.206 230.95 552.325C229.972 558.424 227.979 562.592 223.618 566.988C220.029 568.439 220.029 568.439 216.287 568.21C206.504 563.319 201.382 555.356 197.666 545.399C196.018 540.352 195.366 536.109 195.394 530.769C195.398 529.461 195.402 528.154 195.406 526.807C195.416 525.449 195.426 524.091 195.437 522.692C195.442 521.316 195.448 519.939 195.454 518.52C195.468 515.125 195.488 511.73 195.513 508.334Z" fill="#EE4E07"/>
<path d="M667.189 388.582C666.785 394.228 666.382 399.873 665.967 405.69C660.177 404.725 656.742 403.827 651.609 401.489C635.684 394.704 620.998 393.898 604.64 399.852C601.121 400.825 599.607 401.07 596.315 399.58C593.489 396.067 593.489 396.067 591.427 392.248C592.649 388.582 592.649 388.582 594.691 387.513C595.559 387.232 596.428 386.952 597.322 386.664C598.278 386.35 599.233 386.037 600.217 385.714C601.223 385.4 602.229 385.087 603.265 384.764C604.247 384.441 605.229 384.118 606.241 383.785C626.34 377.31 648.18 379.078 667.189 388.582Z" fill="#F65D0A"/>
<path d="M515.437 383.083C517.161 384.07 518.874 385.077 520.554 386.138C520.554 387.348 520.554 388.558 520.554 389.804C519.747 389.804 518.941 389.804 518.11 389.804C517.707 391.417 517.303 393.03 516.888 394.692C516.081 394.692 515.275 394.692 514.444 394.692C514.444 395.499 514.444 396.305 514.444 397.136C513.693 397.549 512.941 397.961 512.167 398.387C511.179 398.932 510.192 399.477 509.174 400.038C508.196 400.577 507.218 401.116 506.21 401.671C504.014 402.922 501.883 404.288 499.78 405.69C498.319 406.462 496.844 407.21 495.36 407.938C494.096 408.563 494.096 408.563 492.807 409.2C491.05 410.063 489.294 410.925 487.537 411.788C482.939 414.061 478.474 416.407 474.119 419.131C470.353 413.011 469.211 407.825 470.453 400.802C473.84 392.336 481.099 385.062 489.227 381.045C498.068 378.255 507.201 378.942 515.437 383.083Z" fill="#F9400A"/>
<path d="M474.119 347.036C470.604 360.629 462.213 371.671 453.728 382.625C438.866 402.174 435.41 422.1 435.017 446.014C433.807 445.611 432.597 445.208 431.351 444.792C427.505 436.92 427.112 428.34 427.227 419.742C427.212 418.676 427.198 417.61 427.184 416.511C427.296 391.297 444.421 372.965 461.136 355.971C461.994 355.091 462.853 354.211 463.737 353.304C464.959 352.085 464.959 352.085 466.205 350.84C466.935 350.107 467.665 349.373 468.417 348.617C470.453 347.036 470.453 347.036 474.119 347.036Z" fill="#F9A513"/>
<path d="M610.978 482.673C609.076 486.478 606.158 486.662 602.196 488.019C589.966 492.088 577.265 494.203 564.544 496.115C563.683 496.246 562.822 496.377 561.935 496.513C553.039 497.688 544.098 497.516 535.141 497.489C533.507 497.494 531.874 497.498 530.241 497.504C507.441 497.481 507.441 497.481 501.613 491.838C500.794 491.069 499.975 490.3 499.131 489.508C497.336 487.561 497.336 487.561 497.336 486.339C498.071 486.342 498.806 486.344 499.563 486.347C507.315 486.375 515.068 486.393 522.821 486.406C525.702 486.412 528.583 486.42 531.463 486.431C559.252 487.233 559.252 487.233 586.692 483.819C594.651 481.953 602.858 482.478 610.978 482.673Z" fill="#FCC162"/>
<path d="M587.99 357.041C591.779 359.482 594.007 361.487 596.315 365.365C596.009 368.802 596.009 368.802 595.093 371.475C593.48 371.475 591.867 371.475 590.205 371.475C590.205 370.668 590.205 369.862 590.205 369.031C587.192 369.754 584.297 370.587 581.346 371.551C577.574 372.494 575.315 372.772 571.57 372.621C567.186 372.286 567.186 372.286 564.773 374.148C563.182 376.476 563.182 376.476 561.718 379.647C561.038 380.579 560.357 381.512 559.656 382.473C555.761 382.854 555.761 382.854 552.324 382.473C554.678 379.492 556.969 376.606 559.656 373.919C558.472 374.776 557.287 375.633 556.067 376.516C544.707 384.605 533.245 391.366 520.553 397.136C519.115 397.796 517.677 398.456 516.195 399.136C506.429 403.426 506.429 403.426 502.224 402.024C510.32 397.136 510.32 397.136 514.444 397.136C514.444 396.33 514.444 395.523 514.444 394.692C515.25 394.289 516.057 393.886 516.888 393.47C517.291 392.26 517.694 391.051 518.11 389.804C521.165 388.044 524.188 386.461 527.351 384.916C537.611 379.711 546.859 373.548 556.229 366.907C576.473 352.75 576.473 352.75 587.99 357.041Z" fill="#F6AD0F"/>
<path d="M667.188 421.575C668.171 422.936 668.171 422.936 669.174 424.325C673.875 429.768 678.428 432.741 685.518 433.795C697.506 434.447 706.724 433.688 717.289 427.685C718.533 426.485 719.763 425.27 720.955 424.019C721.761 424.019 722.568 424.019 723.398 424.019C723.532 425.926 723.626 427.837 723.704 429.747C723.761 430.81 723.817 431.874 723.876 432.969C723.22 437.458 721.787 439.224 718.511 442.348C715.385 443.718 712.587 444.771 709.346 445.709C708.535 445.962 707.724 446.216 706.888 446.477C695.66 449.951 686.693 451.661 675.761 446.272C670.909 443.357 667.758 440.392 665.966 435.017C665.804 432.649 665.804 432.649 665.814 430.129C665.811 429.297 665.807 428.466 665.804 427.609C665.966 425.241 665.966 425.241 667.188 421.575Z" fill="#F73809"/>
<path d="M415.465 469.232C416.687 470.454 416.687 470.454 416.764 473.585C416.739 474.568 416.713 475.551 416.687 476.563C408.376 481.426 400.072 486.172 391.408 490.387C381.272 495.363 371.591 501.087 361.862 506.809C358.159 508.976 354.432 511.101 350.702 513.222C355.136 497.454 373.696 485.946 387.039 478.276C405.176 468.137 405.176 468.137 415.465 469.232Z" fill="#222322"/>
<path d="M454.568 490.005C455.374 490.811 456.181 491.618 457.012 492.449C456.864 494.835 456.864 494.835 455.79 497.337C447.595 504.101 436.641 508.233 427.119 512.914C420.828 516.019 414.56 519.17 408.286 522.31C405.744 523.582 403.201 524.853 400.659 526.124C399.567 526.67 398.476 527.216 397.351 527.778C395.65 528.628 393.949 529.479 392.248 530.329C396.982 515.697 412.301 506.767 424.859 499.322C425.715 498.813 426.57 498.304 427.452 497.779C436.255 492.701 444.246 489.115 454.568 490.005Z" fill="#222423"/>
<path d="M372.697 454.568C373.504 455.375 374.31 456.181 375.141 457.012C375.035 459.394 375.035 459.394 373.919 461.9C371.495 463.68 371.495 463.68 368.287 465.337C366.503 466.277 366.503 466.277 364.683 467.235C363.396 467.894 362.109 468.553 360.783 469.232C358.115 470.634 355.448 472.039 352.783 473.446C351.424 474.161 350.066 474.875 348.666 475.61C342.347 478.984 336.135 482.535 329.929 486.11C328.82 486.747 327.711 487.384 326.569 488.041C324.022 489.507 321.475 490.976 318.931 492.449C318.528 491.239 318.124 490.029 317.709 488.783C330.469 474.063 350.937 452.634 372.697 454.568Z" fill="#212424"/>
<path d="M284.716 470.453C284.361 471.474 284.361 471.474 284 472.515C281.889 478.703 280.11 484.864 278.606 491.226C267.013 494.303 257.554 495.317 245.613 493.67C246.338 492.79 247.062 491.909 247.809 491.002C250.249 487.883 252.348 484.711 254.472 481.374C262.616 469.846 271.178 469.71 284.716 470.453Z" fill="#F01908"/>
<path d="M542.549 436.239C560.998 436.239 578.588 448.095 591.504 460.296C594.5 463.421 596.378 466.203 597.537 470.454C592.833 468.651 588.362 466.548 583.862 464.287C583.146 463.928 582.43 463.569 581.692 463.199C579.412 462.055 577.133 460.909 574.855 459.761C572.615 458.637 570.374 457.513 568.133 456.39C566.658 455.648 565.184 454.904 563.712 454.156C560.131 452.34 556.537 450.594 552.884 448.929C551.554 448.313 550.225 447.698 548.855 447.065C547.667 446.535 546.479 446.005 545.256 445.46C542.549 443.571 542.549 443.571 541.468 440.374C541.421 439.412 541.375 438.451 541.327 437.461C541.73 437.057 542.134 436.654 542.549 436.239Z" fill="#202322"/>
<path d="M278.606 514.444C280.648 518.063 281.449 521.007 281.814 525.136C281.905 526.113 281.997 527.089 282.091 528.095C282.18 529.201 282.18 529.201 282.272 530.329C281.239 530.273 280.205 530.216 279.141 530.157C265.768 529.732 259.137 532.8 248.988 541.117C246.835 542.549 246.835 542.549 243.169 542.549C244.027 532.605 246.334 526.046 254.167 519.332C259.143 516.844 263.616 516.472 269.136 516.2C274.262 516.399 274.262 516.399 278.606 514.444Z" fill="#E20605"/>
<path d="M484.124 515.589C485.225 515.601 486.326 515.612 487.461 515.623C488.3 515.637 489.14 515.651 490.005 515.666C490.61 518.085 490.61 518.085 491.227 520.554C484.405 526.137 477.541 530.059 469.461 533.537C468.39 534.008 467.319 534.479 466.215 534.964C445.996 543.771 445.996 543.771 441.126 543.771C445.386 530.902 458.792 524.514 470.181 518.759C475.187 516.381 478.644 515.518 484.124 515.589Z" fill="#222524"/>
<path d="M594.94 522.539C598.445 522.653 599.697 522.803 602.654 524.83C603.75 526.343 603.75 526.343 604.869 527.885C605.412 528.626 605.956 529.366 606.515 530.129C609.174 533.995 610.849 536.989 611.742 541.632C610.978 544.993 610.978 544.993 608.535 547.895C602.702 551.054 597.83 550.521 591.503 549.041C588.983 547.437 588.983 547.437 587.914 544.305C587.864 543.323 587.813 542.34 587.761 541.327C588.164 540.924 588.568 540.52 588.983 540.105C588.711 536.336 588.267 532.598 587.833 528.845C587.809 527.722 587.786 526.599 587.761 525.441C590.205 522.998 590.205 522.998 594.94 522.539Z" fill="#FDAF16"/>
<path d="M195.513 508.334C196.32 508.334 197.126 508.334 197.957 508.334C201.155 515.234 203.153 521.744 204.372 529.26C206.157 539.088 210.25 552.398 217.508 559.656C217.558 562.1 217.56 564.545 217.508 566.988C210.692 566.218 208.184 563.021 203.905 557.967C198.139 549.886 195.341 540.622 195.394 530.769C195.398 529.461 195.402 528.154 195.406 526.807C195.416 525.449 195.426 524.091 195.437 522.692C195.442 521.316 195.448 519.939 195.453 518.52C195.468 515.125 195.488 511.73 195.513 508.334Z" fill="#FAA60D"/>
<path d="M508.334 455.79C515.792 455.392 520.912 456.326 527.656 459.456C528.501 459.839 529.346 460.221 530.217 460.616C541.518 465.924 550.794 472.761 558.435 482.673C558.031 483.479 557.628 484.286 557.213 485.117C511.909 465.475 511.909 465.475 507.112 460.678C507.571 458.081 507.571 458.081 508.334 455.79Z" fill="#202322"/>
<path d="M438.377 575.466C439.354 575.477 440.33 575.488 441.336 575.499C442.074 575.513 442.811 575.527 443.57 575.542C442.384 578.511 441.588 580.131 438.869 581.89C429.929 585.643 421.709 587.641 412.028 588.22C407.515 588.555 406.088 588.678 402.406 591.504C401.876 592.285 401.347 593.066 400.802 593.871C395.045 592.375 390.235 590.475 384.916 587.762C381.68 586.469 378.418 585.282 375.141 584.096C375.141 583.692 375.141 583.289 375.141 582.874C375.864 582.862 376.587 582.851 377.333 582.839C395.47 582.483 412.681 580.711 430.251 576.089C433.02 575.436 435.535 575.424 438.377 575.466Z" fill="#F6A617"/>
<path d="M579.208 421.575C595.635 422.114 609.816 430.255 621.322 441.671C628.086 449.064 628.086 449.064 628.086 452.124C620.585 450.039 613.994 446.291 607.16 442.654C604.648 441.329 602.136 440.005 599.623 438.683C598.422 438.049 597.221 437.416 595.984 436.764C590.031 433.645 584.02 430.644 577.986 427.685C577.986 422.797 577.986 422.797 579.208 421.575Z" fill="#1E2323"/>
<path d="M661.079 386.139C660.272 387.752 659.466 389.365 658.635 391.026C657.575 390.938 656.515 390.85 655.423 390.759C646.314 390.108 637.268 389.757 628.134 389.809C626.86 389.816 626.86 389.816 625.561 389.822C621.245 389.848 616.931 389.893 612.616 389.957C610.22 389.978 610.22 389.978 607.776 390C605.613 390.031 605.613 390.031 603.406 390.063C599.981 389.804 599.981 389.804 597.537 387.361C618.911 377.992 639.22 378.043 661.079 386.139Z" fill="#F5A716"/>
<path d="M562.1 370.253C562.1 373.919 562.1 373.919 559.451 376.606C543.167 390.026 525.68 398.961 506.649 407.952C499.006 411.564 491.441 415.32 483.895 419.131C482.685 419.736 482.685 419.736 481.451 420.353C481.451 419.143 481.451 417.934 481.451 416.687C479.032 417.292 479.032 417.292 476.563 417.909C479.824 414.06 483.956 412.08 488.401 409.89C489.24 409.472 490.078 409.054 490.942 408.623C498.683 404.844 506.621 401.603 514.597 398.358C532.242 391.13 547.301 382.25 562.1 370.253Z" fill="#201F1D"/>
<path d="M369.031 581.652C380.322 581.652 391.613 581.652 403.246 581.652C403.246 582.055 403.246 582.458 403.246 582.874C390.544 583.478 390.544 583.478 377.585 584.096C379.601 584.776 381.617 585.456 383.695 586.158C399.138 591.764 399.138 591.764 402.024 597.537C391.54 597.537 381.055 597.537 370.253 597.537C369.85 592.295 369.447 587.053 369.031 581.652Z" fill="#C85206"/>
<path d="M609.756 483.895C596.956 492.428 579.422 493.824 564.544 496.114C563.685 496.248 562.825 496.382 561.94 496.52C552.848 497.736 543.682 497.47 534.53 497.413C532.814 497.407 531.098 497.401 529.382 497.396C525.217 497.382 521.052 497.362 516.888 497.336C518.887 494.894 519.935 493.765 523.111 493.278C524.111 493.3 525.112 493.323 526.143 493.346C527.315 493.347 528.486 493.347 529.693 493.348C531.633 493.356 531.633 493.356 533.613 493.365C550.996 493.124 567.645 490.101 584.679 486.875C586.223 486.585 586.223 486.585 587.798 486.289C589.732 485.924 591.663 485.55 593.593 485.168C599.086 484.119 604.163 483.719 609.756 483.895Z" fill="#FDA033"/>
<path d="M672.076 497.336C672.076 498.143 672.076 498.949 672.076 499.78C670.514 500.076 668.951 500.373 667.341 500.678C665.253 501.091 663.166 501.504 661.079 501.919C660.053 502.111 659.028 502.303 657.971 502.501C650.483 504.01 642.642 505.929 637.131 511.545C635.417 513.222 635.417 513.222 632.973 513.222C632.973 514.028 632.973 514.835 632.973 515.666C631.764 515.666 630.554 515.666 629.308 515.666C629.395 511.989 629.748 509.285 632.129 506.387C641.897 497.544 659.205 490.901 672.076 497.336Z" fill="#F8B325"/>
<path d="M603.647 414.243C603.647 415.05 603.647 415.856 603.647 416.687C602.08 416.909 602.08 416.909 600.482 417.136C599.132 417.341 597.782 417.546 596.391 417.757C595.044 417.955 593.698 418.154 592.31 418.358C591.212 418.613 590.114 418.868 588.983 419.131C588.58 419.938 588.177 420.744 587.761 421.575C583.729 421.172 579.696 420.769 575.542 420.353C575.542 419.95 575.542 419.547 575.542 419.131C579.776 418.526 579.776 418.526 584.095 417.909C577.884 417.725 572.371 418.365 566.3 419.666C563.272 420.308 560.243 420.944 557.212 421.575C555.192 422.012 555.192 422.012 553.131 422.458C552.058 422.57 550.986 422.682 549.88 422.797C549.074 421.991 548.267 421.184 547.437 420.353C589.953 407.397 589.953 407.397 603.647 414.243Z" fill="#E9B24B"/>
<path d="M661.079 386.138C664.103 387.348 664.103 387.348 667.188 388.582C666.785 394.228 666.382 399.873 665.966 405.69C660.562 404.789 656.937 403.988 652.067 401.947C650.999 401.505 649.931 401.062 648.83 400.606C648.033 400.268 647.236 399.929 646.415 399.58C646.415 399.177 646.415 398.773 646.415 398.358C648.835 398.358 651.254 398.358 653.747 398.358C654.049 397.476 654.352 396.594 654.663 395.685C656.325 391.946 658.426 389.233 661.079 386.138Z" fill="#F0490A"/>
<path d="M618.31 404.468C621.213 404.368 624.113 404.296 627.017 404.239C627.829 404.208 628.642 404.177 629.48 404.146C635.271 404.06 639.058 405.099 643.971 408.134C647.949 412.216 648.859 413.3 648.859 419.131C646.106 417.771 643.383 416.374 640.673 414.931C633.216 411.032 626.616 408.296 618.31 406.912C618.31 406.105 618.31 405.299 618.31 404.468Z" fill="#E11609"/>
<path d="M610.979 482.673C610.979 483.076 610.979 483.48 610.979 483.895C571.248 491.189 571.248 491.189 554.769 490.005C559.186 485.668 563.723 485.769 569.585 485.652C575.426 485.436 580.989 485.206 586.692 483.819C594.651 481.953 602.858 482.478 610.979 482.673Z" fill="#FDCB70"/>
<path d="M609.757 483.895C598.081 491.679 583.021 492.9 569.432 494.893C569.835 493.28 570.239 491.667 570.654 490.005C575.565 488.973 580.479 487.96 585.394 486.95C586.779 486.658 588.165 486.367 589.592 486.067C596.428 484.672 602.775 483.49 609.757 483.895Z" fill="#FD9620"/>
<path d="M562.1 370.253C562.1 373.919 562.1 373.919 559.451 376.606C549.053 385.175 538.213 393.654 525.441 398.358C525.441 397.551 525.441 396.745 525.441 395.914C524.635 395.511 523.828 395.108 522.998 394.692C524.774 393.889 524.774 393.889 526.587 393.069C539.699 386.935 550.804 379.266 562.1 370.253Z" fill="#332A20"/>
<path d="M375.141 582.874C379.98 582.874 384.819 582.874 389.804 582.874C389.804 583.68 389.804 584.487 389.804 585.317C395.046 586.124 400.288 586.93 405.69 587.761C404.48 589.778 403.27 591.794 402.024 593.871C395.733 592.461 390.659 590.752 384.916 587.761C381.681 586.467 378.418 585.282 375.141 584.095C375.141 583.692 375.141 583.289 375.141 582.874Z" fill="#FB9C0A"/>
<path d="M815.045 476.563C815.449 476.563 815.852 476.563 816.267 476.563C815.864 480.596 815.461 484.628 815.045 488.783C813.836 488.783 812.626 488.783 811.379 488.783C809.405 490.945 809.405 490.945 807.637 493.671C805.761 496.42 805.761 496.42 804.048 498.558C803.241 498.558 802.435 498.558 801.604 498.558C801.193 499.57 801.193 499.57 800.773 500.601C798.666 504.316 795.952 506.885 792.897 509.862C791.785 510.952 790.673 512.042 789.527 513.165C788.674 513.99 787.82 514.815 786.94 515.666C785.731 515.263 784.521 514.859 783.274 514.444C784.364 513.551 784.364 513.551 785.475 512.64C797.526 502.331 806.903 490.133 815.045 476.563Z" fill="#2C3133"/>
<path d="M268.601 514.291C269.871 514.308 269.871 514.308 271.167 514.325C273.239 514.353 275.312 514.397 277.384 514.444C277.384 515.251 277.384 516.057 277.384 516.888C276.234 516.934 275.084 516.979 273.9 517.026C271.617 517.147 271.617 517.147 269.289 517.27C267.034 517.376 267.034 517.376 264.735 517.485C260.09 518.136 257.028 519.543 252.945 521.776C252.138 521.776 251.332 521.776 250.501 521.776C248.64 525.365 247.078 529.006 245.613 532.773C245.21 531.967 244.807 531.16 244.391 530.329C243.585 530.329 242.778 530.329 241.947 530.329C243.624 523.996 247.695 520.476 252.945 516.888C258.107 514.199 262.905 514.15 268.601 514.291Z" fill="#321F17"/>
<path d="M271.274 471.675C270.619 472.154 269.964 472.633 269.289 473.127C268.331 473.857 267.373 474.588 266.387 475.341C265.177 476.173 263.967 477.005 262.721 477.862C257.753 481.947 256.129 487.727 254.167 493.671C251.344 493.671 248.522 493.671 245.613 493.671C246.243 492.915 246.873 492.159 247.523 491.38C250.846 487.119 253.799 482.676 256.759 478.158C260.877 473.106 264.778 471.119 271.274 471.675Z" fill="#CA140E"/>
<path d="M522.997 387.36C525.014 389.377 527.03 391.393 529.107 393.47C525.322 395.144 521.526 396.791 517.728 398.434C516.113 399.149 516.113 399.149 514.465 399.878C513.429 400.323 512.394 400.768 511.327 401.227C510.373 401.643 509.42 402.059 508.437 402.487C505.89 403.246 505.89 403.246 502.224 402.024C510.32 397.136 510.32 397.136 514.444 397.136C514.444 396.33 514.444 395.523 514.444 394.692C515.25 394.289 516.057 393.886 516.888 393.47C517.291 392.26 517.694 391.051 518.11 389.804C520.63 388.353 520.63 388.353 522.997 387.36Z" fill="#F7740C"/>
<path d="M525.441 395.914C524.219 399.58 524.219 399.58 520.219 401.852C518.555 402.635 516.884 403.405 515.207 404.162C514.369 404.564 513.531 404.966 512.668 405.379C506.357 408.289 506.357 408.289 502.224 406.912C503.446 403.246 503.446 403.246 507.136 401.284C508.675 400.626 510.22 399.982 511.771 399.351C512.925 398.851 512.925 398.851 514.102 398.341C518.223 396.616 520.9 395.914 525.441 395.914Z" fill="#23231D"/>
<path d="M585.318 369.031C584.914 369.838 584.511 370.644 584.096 371.475C579.863 372.507 575.966 372.704 571.647 372.544C567.197 372.286 567.197 372.286 564.773 374.148C563.182 376.476 563.182 376.476 561.719 379.647C561.038 380.579 560.358 381.512 559.656 382.473C555.761 382.854 555.761 382.854 552.325 382.473C561.488 369.491 570.255 367.972 585.318 369.031Z" fill="#FDA308"/>
<path d="M371.475 490.005C369.226 495.281 365.573 498.386 361.427 502.224C359.119 504.821 358.818 506.279 358.033 509.556C354.291 511.695 354.291 511.695 350.702 513.222C352.566 506.593 357.106 502.236 361.699 497.337C362.394 496.592 363.089 495.847 363.804 495.079C368.686 490.005 368.686 490.005 371.475 490.005Z" fill="#322D22"/>
<path d="M525.456 493.313C526.381 493.325 527.307 493.336 528.26 493.349C529.22 493.379 530.18 493.41 531.169 493.442C532.631 493.466 532.631 493.466 534.122 493.492C536.524 493.535 538.925 493.601 541.327 493.671C541.73 494.477 542.133 495.284 542.549 496.115C539.679 497.55 537.981 497.477 534.787 497.456C533.748 497.452 532.708 497.448 531.637 497.444C530.55 497.434 529.463 497.423 528.344 497.413C527.247 497.407 526.151 497.402 525.021 497.396C522.31 497.382 519.599 497.362 516.888 497.337C519.654 494.056 521.172 493.216 525.456 493.313Z" fill="#FCAC47"/>
<path d="M389.804 582.873C392.809 582.775 395.811 582.702 398.816 582.644C399.67 582.614 400.524 582.583 401.403 582.551C403.885 582.515 403.885 582.515 408.134 582.873C408.94 584.083 409.747 585.293 410.577 586.539C403.722 586.539 396.867 586.539 389.804 586.539C389.804 585.33 389.804 584.12 389.804 582.873Z" fill="#FEB412"/>
<path d="M610.979 482.673C610.979 483.076 610.979 483.479 610.979 483.895C607.416 484.544 603.853 485.178 600.286 485.804C599.278 485.989 598.27 486.174 597.232 486.365C595.767 486.619 595.767 486.619 594.272 486.878C593.376 487.038 592.48 487.198 591.557 487.363C588.734 487.58 586.749 487.316 584.095 486.339C583.692 485.532 583.289 484.726 582.874 483.895C592.223 482.369 601.538 482.562 610.979 482.673Z" fill="#FDBB50"/>
<path d="M268.449 514.367C269.307 514.373 270.164 514.378 271.048 514.384C273.16 514.398 275.272 514.42 277.384 514.444C277.384 515.25 277.384 516.057 277.384 516.888C270.126 517.291 262.868 517.694 255.389 518.11C255.389 517.303 255.389 516.497 255.389 515.666C259.811 514.192 263.851 514.312 268.449 514.367Z" fill="#572214"/>
<path d="M271.275 471.675C270.619 472.154 269.964 472.633 269.289 473.126C262.681 477.751 262.681 477.751 257.833 483.895C257.027 483.895 256.22 483.895 255.389 483.895C255.486 480.518 255.957 478.438 258.382 476.019C262.658 472.772 265.715 470.833 271.275 471.675Z" fill="#4F1E13"/>
<path d="M619.532 441.126C624.101 444.373 626.436 446.724 628.086 452.124C623.473 450.791 620.179 449.792 617.088 446.014C617.895 444.401 618.701 442.788 619.532 441.126Z" fill="#282920"/>
<path d="M587.761 416.687C583.992 419.2 581.837 419.756 577.451 420.506C576.293 420.711 575.136 420.915 573.943 421.126C570.654 421.575 570.654 421.575 565.766 421.575C565.766 420.769 565.766 419.962 565.766 419.131C573.286 416.903 579.936 416.399 587.761 416.687Z" fill="#FDE098"/>
<path d="M562.1 370.253C562.1 371.463 562.1 372.672 562.1 373.919C559.704 376.183 557.346 378.223 554.769 380.258C554.069 380.824 553.37 381.39 552.649 381.974C550.92 383.372 549.179 384.756 547.437 386.138C546.227 385.332 545.017 384.525 543.771 383.694C545.602 382.393 545.602 382.393 547.47 381.064C549.063 379.93 550.656 378.796 552.248 377.661C553.054 377.088 553.86 376.516 554.69 375.926C558.559 373.29 558.559 373.29 562.1 370.253Z" fill="#55451E"/>
<path d="M401.718 586.845C403.029 587.147 404.339 587.45 405.69 587.761C404.48 589.778 403.27 591.794 402.024 593.871C398.798 593.065 395.572 592.258 392.248 591.427C395.423 587.236 396.304 586.484 401.718 586.845Z" fill="#F98707"/>
<path d="M602.425 524.219C610.673 527.427 610.673 527.427 613.422 531.551C611.809 532.761 610.196 533.971 608.535 535.217C607.509 533.848 606.493 532.472 605.48 531.093C604.913 530.327 604.346 529.562 603.761 528.773C602.425 526.663 602.425 526.663 602.425 524.219Z" fill="#E62F07"/>
<path d="M564.544 417.909C563.322 420.353 563.322 420.353 559.427 421.804C554.816 422.787 551.964 422.68 547.437 421.575C552.646 418.102 558.39 415.448 564.544 417.909Z" fill="#EAB355"/>
<path d="M549.881 475.341C553.995 477.044 555.973 478.981 558.434 482.673C558.031 483.48 557.628 484.286 557.212 485.117C554.39 483.907 551.567 482.697 548.659 481.451C549.465 481.048 550.272 480.645 551.103 480.229C550.699 478.616 550.296 477.003 549.881 475.341Z" fill="#312B21"/>
<path d="M783.274 270.052C784.081 270.456 784.887 270.859 785.718 271.274C784.203 272.889 782.672 274.491 781.136 276.086C780.285 276.979 779.435 277.872 778.558 278.792C775.935 281.056 774.433 281.793 771.055 282.272C778.57 273.128 778.57 273.128 783.274 270.052Z" fill="#2B3033"/>
<path d="M620.754 698.959C622.768 702.585 623.739 705.871 624.42 709.957C622.807 709.957 621.194 709.957 619.532 709.957C618.768 705.833 618.768 705.833 618.31 701.403C619.117 700.597 619.923 699.79 620.754 698.959Z" fill="#FE961B"/>
<path d="M514.444 394.692C515.25 394.692 516.057 394.692 516.888 394.692C517.291 395.902 517.694 397.112 518.11 398.358C516.155 399.212 514.194 400.049 512.229 400.878C511.137 401.346 510.046 401.814 508.921 402.296C505.89 403.246 505.89 403.246 502.224 402.024C510.32 397.136 510.32 397.136 514.444 397.136C514.444 396.33 514.444 395.523 514.444 394.692Z" fill="#F1640B"/>
<path d="M147.857 560.878C149.465 562.043 151.068 563.216 152.668 564.392C153.562 565.044 154.455 565.696 155.375 566.368C157.633 568.21 157.633 568.21 158.855 570.654C156.838 570.251 154.822 569.848 152.745 569.432C152.342 570.239 151.938 571.045 151.523 571.876C150.313 568.247 149.103 564.618 147.857 560.878Z" fill="#282A2D"/>
<path d="M796.716 570.654C797.926 571.057 799.135 571.46 800.382 571.876C801.833 575.618 801.833 575.618 802.826 579.208C801.616 579.208 800.406 579.208 799.16 579.208C798.756 577.998 798.353 576.788 797.938 575.542C797.535 577.155 797.131 578.768 796.716 580.429C796.716 577.203 796.716 573.978 796.716 570.654Z" fill="#F86B44"/>
<path d="M453.346 530.329C451.585 534.437 449.378 537.162 446.014 540.105C445.208 540.105 444.401 540.105 443.57 540.105C445.424 535.779 448.157 530.329 453.346 530.329Z" fill="#2C2C26"/>
<path d="M197.957 508.334C200.78 509.141 203.602 509.947 206.511 510.778C205.301 511.181 204.091 511.585 202.845 512C201.368 514.444 201.368 514.444 200.401 516.888C198.616 513.653 197.957 512.129 197.957 508.334Z" fill="#D86C09"/>
<path d="M491.227 381.25C490.005 384.916 490.005 384.916 486.568 386.826C485.283 387.405 483.997 387.985 482.673 388.582C481.715 389.061 480.758 389.54 479.771 390.033C479.116 390.361 478.46 390.689 477.785 391.026C485.436 381.25 485.436 381.25 491.227 381.25Z" fill="#EF610D"/>
<path d="M560.878 376.363C561.282 377.573 561.685 378.782 562.1 380.029C559.223 381.775 557.848 382.578 554.463 382.014C553.757 381.762 553.052 381.51 552.325 381.251C556.754 376.363 556.754 376.363 560.878 376.363Z" fill="#F79207"/>
<path d="M320.153 485.117C323.782 485.722 323.782 485.722 327.485 486.339C324.61 489.668 321.833 491 317.709 492.449C318.327 489.799 318.931 487.561 320.153 485.117Z" fill="#2B2C28"/>
<path d="M487.561 454.568C488.77 454.971 489.98 455.375 491.227 455.79C488.807 458.21 486.388 460.629 483.895 463.122C482.685 462.719 481.475 462.315 480.229 461.9C482.648 459.48 485.068 457.061 487.561 454.568Z" fill="#F0CE84"/>
<path d="M546.215 386.138C540.716 391.026 540.716 391.026 535.217 391.026C535.217 390.22 535.217 389.413 535.217 388.582C542.091 384.764 542.091 384.764 546.215 386.138Z" fill="#282724"/>
<path d="M512 400.802C512 401.608 512 402.415 512 403.246C510.387 403.246 508.774 403.246 507.112 403.246C507.515 404.456 507.919 405.665 508.334 406.912C506.721 407.315 505.108 407.718 503.446 408.134C503.446 406.924 503.446 405.714 503.446 404.468C506.54 401.587 507.689 400.802 512 400.802Z" fill="#362B22"/>
<path d="M522.997 387.36C525.014 389.377 527.03 391.393 529.107 393.47C526.688 393.873 524.268 394.277 521.775 394.692C522.179 392.273 522.582 389.853 522.997 387.36Z" fill="#F1900C"/>
<path d="M315.265 701.403C315.668 701.403 316.071 701.403 316.487 701.403C316.89 705.033 317.293 708.662 317.709 712.401C315.693 711.998 313.676 711.594 311.599 711.179C312.406 710.776 313.212 710.372 314.043 709.957C314.541 707.12 314.953 704.267 315.265 701.403Z" fill="#4D3B35"/>
<path d="M241.948 530.329C242.754 530.329 243.561 530.329 244.391 530.329C243.675 537.847 243.675 537.847 243.17 540.105C241.96 540.71 241.96 540.71 240.726 541.327C241.129 537.698 241.532 534.069 241.948 530.329Z" fill="#15221E"/>
<path d="M719.733 514.444C720.42 516.811 720.42 516.811 720.955 519.332C719.733 520.554 719.733 520.554 715.38 520.63C713.994 520.605 712.607 520.58 711.179 520.554C711.582 519.747 711.986 518.941 712.401 518.11C714.438 517.702 716.474 517.295 718.511 516.888C718.914 516.081 719.317 515.275 719.733 514.444Z" fill="#C4160F"/>
<path d="M254.167 481.451C255.542 483.437 255.542 483.437 256.611 486.339C255.542 490.31 255.542 490.31 254.167 493.671C252.654 489.3 253.252 485.927 254.167 481.451Z" fill="#8D0C10"/>
<path d="M477.785 340.926C478.995 341.733 480.205 342.539 481.451 343.37C481.451 344.176 481.451 344.983 481.451 345.814C478.225 346.217 474.999 346.62 471.675 347.036C473.692 345.02 475.708 343.003 477.785 340.926Z" fill="#CA6F08"/>
<path d="M526.664 852.926C529.486 853.329 532.309 853.733 535.217 854.148C531.592 856.162 528.306 857.133 524.22 857.814C525.026 856.201 525.833 854.588 526.664 852.926Z" fill="#FDA229"/>
<path d="M815.045 476.563C815.449 476.563 815.852 476.563 816.267 476.563C815.864 480.596 815.461 484.628 815.045 488.783C813.836 487.17 812.626 485.557 811.379 483.895C812.589 481.475 813.799 479.056 815.045 476.563Z" fill="#3E4143"/>
</svg>
